<svg aria-hidden="true" style="width:0;height:0;position:absolute;overflow:hidden" xmlns="http://www.w3.org/2000/svg"><defs><symbol id="icon-arrow-down" viewBox="0 0 18 18" fill="none"><path d="m4.5 6.75 4.5 4.5 4.5-4.5" stroke-opacity=".5" stroke-width="2" stroke-linecap="round" stroke-linejoin="round"/></symbol><symbol id="icon-arrow-left" viewBox="0 0 32 32"><path fill="#f8f8f8" style="fill:var(--color1,#f8f8f8)" opacity=".5" d="M14.133 16.947a1.334 1.334 0 0 1 0-1.894l6.12-6.107a1.334 1.334 0 1 0-1.88-1.894l-6.12 6.12a4.001 4.001 0 0 0 0 5.654l6.12 6.12a1.337 1.337 0 0 0 2.172-.434 1.331 1.331 0 0 0-.292-1.46l-6.12-6.107z"/></symbol><symbol id="icon-arrow-right" viewBox="0 0 32 32"><path d="M17.867 16.947a1.334 1.334 0 0 0 0-1.894l-6.12-6.107a1.334 1.334 0 1 1 1.88-1.894l6.12 6.12a4.001 4.001 0 0 1 0 5.654l-6.12 6.12a1.337 1.337 0 0 1-2.172-.434 1.331 1.331 0 0 1 .292-1.46l6.12-6.107z"/></symbol><symbol id="icon-search" viewBox="0 0 32 32"><path d="M28.947 27.054 24 22.147a11.999 11.999 0 0 0-1.353-16.445 12 12 0 1 0-.5 18.298l4.907 4.907a1.334 1.334 0 0 0 1.894 0 1.336 1.336 0 0 0 0-1.854zm-14.28-3.053a9.33 9.33 0 0 1-8.623-5.762A9.339 9.339 0 0 1 8.067 8.067a9.331 9.331 0 0 1 10.172-2.023 9.336 9.336 0 0 1 5.762 8.623 9.333 9.333 0 0 1-9.334 9.334z"/></symbol><symbol id="icon-shopping-cart" viewBox="0 0 24 24" fill="none"><path d="M9 22a1 1 0 1 0 0-2 1 1 0 0 0 0 2ZM20 22a1 1 0 1 0 0-2 1 1 0 0 0 0 2Z" fill="#050505" stroke-width="2" stroke-linecap="round" stroke-linejoin="round"/><path d="M1 1h4l2.68 13.39a2 2 0 0 0 2 1.61h9.72a2 2 0 0 0 2-1.61L23 6H6" stroke-width="1.8" stroke-linecap="round" stroke-linejoin="round"/></symbol><symbol id="icon-x" viewBox="0 0 32 32"><path fill="none" stroke="#9bb537" style="stroke:var(--color2,#9bb537)" stroke-linejoin="round" stroke-linecap="round" stroke-width="3" d="M24 8 8 24M8 8l16 16"/></symbol><symbol id="icon-switch-rect" viewBox="0 0 74 32"><path d="M16 0h41.6c8.837 0 16 7.163 16 16s-7.163 16-16 16H16C7.163 32 0 24.837 0 16S7.163 0 16 0z"/></symbol><symbol id="icon-switch-circle" viewBox="0 0 74 32"><path d="M31.04 16c0 8.306-6.734 15.04-15.04 15.04S.96 24.306.96 16 7.694.96 16 .96 31.04 7.694 31.04 16z"/></symbol><symbol id="icon-heart" viewBox="0 0 32 32"><path fill="none" opacity=".5" stroke="#fff" style="stroke:var(--color1,#fff)" stroke-linejoin="round" stroke-linecap="round" stroke-width="2.909" d="M15.991 6.848C13.325 3.731 8.88 2.893 5.54 5.747s-3.81 7.625-1.187 11c2.181 2.806 8.781 8.725 10.944 10.641.242.214.363.321.504.364a.668.668 0 0 0 .381 0c.141-.042.262-.149.504-.364 2.163-1.916 8.763-7.834 10.944-10.641 2.623-3.375 2.21-8.177-1.187-11.001s-7.785-2.015-10.451 1.101z"/></symbol></defs></svg>